<?xml version="1.0" standalone="no"?>
<!DOCTYPE svg PUBLIC "-//W3C//DTD SVG 20010904//EN"
 "http://www.w3.org/TR/2001/REC-SVG-20010904/DTD/svg10.dtd">
<svg version="1.0" xmlns="http://www.w3.org/2000/svg"
 width="498.000000pt" height="501.000000pt" viewBox="0 0 498.000000 501.000000"
 preserveAspectRatio="xMidYMid meet">

<g transform="translate(0.000000,501.000000) scale(0.100000,-0.100000)"
fill="#000000" stroke="none">
<path d="M2472 4564 c-31 -21 -30 -69 2 -89 27 -18 26 -33 -13 -120 -51 -114
-101 -143 -152 -87 -51 55 -52 58 -34 86 21 31 6 66 -28 66 -50 0 -62 -47 -20
-78 27 -19 27 -20 14 -76 -12 -54 -45 -96 -75 -96 -28 1 -61 40 -61 72 0 29
-3 33 -25 33 -33 0 -42 -44 -11 -52 23 -6 25 -11 42 -103 7 -36 13 -66 14 -68
1 -1 33 13 71 32 111 56 160 68 281 74 136 6 226 -12 341 -68 l80 -38 6 31 c3
18 8 54 12 80 4 32 13 51 26 58 29 15 20 54 -12 54 -21 0 -25 -5 -25 -30 0
-38 -10 -54 -42 -66 -50 -19 -93 37 -93 120 0 33 3 40 23 43 18 2 22 9 22 38
0 33 -2 35 -35 35 -31 0 -35 -3 -38 -29 -2 -16 1 -33 7 -39 7 -7 0 -24 -20
-53 -29 -43 -59 -59 -96 -52 -22 4 -76 92 -99 160 -16 48 -15 50 5 72 28 29
27 71 -1 90 -12 9 -27 16 -33 16 -6 0 -21 -7 -33 -16z"/>
<path d="M2553 4052 c72 -77 81 -96 106 -242 21 -116 55 -267 63 -275 11 -11
-5 367 -17 411 -27 96 -79 144 -169 157 l-38 6 55 -57z"/>
<path d="M2380 4082 c0 -4 12 -25 26 -45 45 -66 74 -144 115 -311 22 -88 49
-190 60 -226 30 -100 101 -235 179 -340 84 -112 140 -221 177 -345 24 -80 27
-107 27 -240 1 -114 -3 -166 -17 -215 -33 -123 -84 -200 -172 -263 l-30 -22
23 35 c53 82 102 180 128 255 39 113 46 287 15 400 -41 149 -135 322 -268 491
-41 54 -84 116 -94 140 -11 24 -26 95 -35 159 -16 126 -49 252 -94 358 -28 67
-89 171 -96 164 -2 -2 5 -30 16 -63 24 -67 46 -200 55 -324 24 -316 78 -475
231 -677 41 -54 89 -127 108 -163 150 -286 119 -616 -75 -812 -37 -38 -62 -68
-55 -68 38 1 149 36 205 65 140 74 253 192 356 374 108 191 149 313 147 441
-3 167 -61 291 -267 574 -55 74 -70 104 -96 190 -87 289 -114 357 -169 420
-17 19 -44 39 -60 45 -34 11 -37 4 -16 -37 18 -36 33 -126 51 -311 23 -226 44
-320 92 -415 37 -73 61 -102 133 -161 101 -82 143 -128 177 -191 80 -153 70
-298 -38 -512 -34 -68 -63 -121 -66 -118 -2 2 9 53 26 113 82 296 62 430 -94
633 -129 168 -268 366 -291 415 -12 28 -36 115 -53 195 -46 222 -74 302 -125
355 -38 41 -47 45 -89 45 -26 0 -47 -3 -47 -8z"/>
<path d="M2208 4002 c-153 -117 -304 -360 -405 -647 -38 -110 -53 -187 -54
-279 -1 -99 8 -122 121 -306 110 -179 165 -341 142 -418 -15 -50 -65 -99 -129
-128 -29 -12 -53 -26 -53 -29 0 -13 124 7 202 31 136 43 254 142 338 282 54
92 70 143 77 242 9 144 -39 305 -117 393 l-33 38 -107 -3 c-131 -4 -143 3
-138 73 2 35 -2 52 -16 68 -18 19 -18 22 -3 39 15 17 15 19 -1 35 -16 17 -16
20 0 47 16 28 16 29 -8 45 -33 21 -30 37 15 98 56 74 98 170 111 255 12 83 33
132 56 132 14 0 15 -21 9 -197 -6 -164 -4 -213 9 -286 22 -113 58 -191 116
-244 185 -170 201 -188 237 -261 33 -66 37 -82 37 -155 1 -74 -3 -90 -36 -162
l-38 -80 30 35 c113 131 86 318 -83 570 -28 41 -58 93 -68 115 -24 55 -46 176
-59 330 -21 260 -32 340 -51 378 -11 20 -24 37 -29 37 -5 0 -37 -22 -72 -48z"/>
<path d="M2840 4003 c0 -4 20 -48 45 -97 24 -49 61 -139 81 -200 59 -179 77
-212 162 -300 81 -84 125 -152 173 -265 24 -55 29 -61 29 -36 0 44 -38 270
-56 333 -48 163 -127 294 -253 417 -84 82 -181 161 -181 148z"/>
<path d="M1742 1733 c9 -2 20 -14 24 -26 4 -12 12 -26 19 -32 7 -5 41 -83 75
-173 35 -90 67 -165 72 -168 5 -3 15 10 23 30 17 41 18 49 6 42 -9 -6 -29 42
-102 241 l-34 93 -50 -1 c-27 -1 -42 -3 -33 -6z"/>
<path d="M2072 1703 c-6 -20 -9 -39 -7 -42 3 -2 5 1 5 8 0 7 5 9 10 6 6 -4 10
-68 10 -161 0 -141 -2 -156 -20 -174 l-20 -20 68 1 c55 0 63 2 45 11 -23 11
-23 14 -23 200 0 186 0 189 23 198 17 7 12 9 -29 9 -50 1 -51 0 -62 -36z"/>
<path d="M2386 1709 c-14 -33 -13 -38 16 -98 17 -35 31 -78 32 -95 0 -17 6
-35 13 -41 7 -5 21 -35 33 -65 l22 -55 -22 -17 c-22 -18 -21 -18 46 -18 l67 0
-20 23 c-12 12 -53 105 -93 207 -40 102 -74 187 -76 189 -2 2 -10 -11 -18 -30z"/>
<path d="M2676 1603 c65 -121 74 -144 74 -190 0 -40 -5 -58 -20 -73 l-20 -20
67 0 c64 0 66 1 45 16 -19 13 -22 24 -22 90 0 41 -3 74 -7 74 -5 0 -33 48 -63
106 -53 102 -54 106 -36 120 18 13 15 14 -36 14 l-55 0 73 -137z"/>
<path d="M2855 1731 c11 -4 22 -20 25 -35 l5 -26 28 35 28 35 -53 -1 c-36 0
-47 -3 -33 -8z"/>
<path d="M3117 1703 c-8 -21 -11 -39 -7 -41 8 -3 56 -120 62 -152 2 -11 -9
-17 -42 -21 l-45 -6 51 -1 51 -2 22 -56 c26 -68 26 -80 4 -93 -14 -8 -2 -10
46 -11 63 0 64 0 47 19 -10 11 -51 103 -90 205 -40 103 -75 189 -78 192 -3 2
-12 -12 -21 -33z"/>
<path d="M2041 1619 c-6 -18 -9 -34 -7 -36 2 -2 9 10 15 28 6 18 9 34 7 36 -2
2 -9 -10 -15 -28z"/>
<path d="M2300 1489 c0 -5 28 -9 63 -8 71 1 67 5 -10 12 -29 2 -53 0 -53 -4z"/>
<path d="M3035 1490 c-4 -6 3 -10 14 -10 25 0 27 6 6 13 -8 4 -17 2 -20 -3z"/>
<path d="M2261 1389 c0 -8 -10 -25 -21 -37 -11 -12 -20 -24 -20 -27 0 -3 21
-5 47 -5 45 0 46 1 26 15 -12 8 -24 28 -26 43 -2 15 -5 20 -6 11z"/>
<path d="M2973 1354 l-22 -34 47 0 c44 0 45 1 25 15 -12 8 -23 23 -25 34 -2
15 -7 12 -25 -15z"/>
<path d="M1771 1373 c-1 -7 -10 -22 -21 -33 l-20 -20 48 0 c38 1 43 3 29 11
-10 6 -22 20 -27 32 -5 12 -9 16 -9 10z"/>
<path d="M972 1202 c-31 -5 -23 -26 11 -30 l27 -3 0 -155 0 -154 -24 0 c-14 0
-28 -4 -31 -10 -4 -7 525 -10 1579 -10 1051 0 1586 3 1586 10 0 6 -11 10 -25
10 l-25 0 0 154 c0 151 1 155 22 158 12 2 23 9 26 15 3 10 -319 13 -1560 15
-860 2 -1573 2 -1586 0z m1308 -65 c0 -1 -9 -32 -19 -69 -11 -39 -15 -68 -10
-70 6 -2 7 -11 4 -21 -10 -24 -103 -25 -112 -1 -11 28 24 84 63 100 27 12 35
20 31 34 -3 11 0 21 7 24 12 5 36 7 36 3z m264 -24 c-4 -16 -13 -46 -21 -67
-9 -27 -10 -42 -3 -46 18 -11 -1 -40 -26 -40 -29 0 -29 7 -4 88 11 35 18 68
15 72 -5 9 11 18 33 19 9 1 10 -7 6 -26z m730 0 c-4 -16 -13 -45 -21 -67 -16
-47 -16 -59 -2 -50 7 4 10 -1 7 -12 -3 -16 -13 -19 -58 -19 l-55 0 2 33 c1 40
18 61 62 79 25 11 32 19 28 33 -5 19 5 28 31 29 9 1 10 -7 6 -26z m-1166 5
c-7 -19 -38 -22 -38 -4 0 10 9 16 21 16 12 0 19 -5 17 -12z m1280 0 c-7 -19
-38 -22 -38 -4 0 10 9 16 21 16 12 0 19 -5 17 -12z m-1548 -13 c15 -9 12 -31
-5 -45 -11 -9 -13 -16 -5 -24 15 -15 12 -37 -7 -58 -20 -22 -133 -28 -116 -5
9 11 30 77 38 122 2 11 4 21 4 22 2 5 81 -6 91 -12z m980 -4 c0 -15 -23 -26
-28 -13 -4 14 -38 16 -47 3 -3 -6 8 -25 25 -44 16 -19 30 -42 30 -50 0 -23
-31 -37 -79 -37 -42 0 -47 7 -31 45 7 19 9 18 19 -7 7 -18 18 -28 31 -28 28 0
26 31 -5 60 -46 43 -27 80 42 80 24 0 43 -4 43 -9z m100 -6 c0 -8 5 -15 10
-15 6 0 10 -4 10 -10 0 -5 -6 -10 -14 -10 -8 0 -17 -11 -20 -24 -3 -13 -9 -32
-13 -43 -6 -16 -5 -17 11 -3 17 13 18 12 15 -5 -3 -13 -14 -21 -33 -23 -29 -4
-29 -3 -22 40 4 24 7 51 7 61 0 9 4 17 10 17 5 0 9 7 9 15 0 8 7 15 15 15 8 0
15 -7 15 -15z m-922 -34 c-2 -9 -12 -16 -22 -16 -13 0 -24 -13 -35 -43 -21
-58 -40 -55 -37 6 3 63 8 69 56 69 32 0 40 -3 38 -16z m94 -6 c-2 -11 -4 -36
-5 -55 -2 -30 -5 -35 -27 -35 -17 0 -24 5 -21 15 2 8 4 29 5 45 1 17 5 36 10
43 12 20 41 10 38 -13z m329 5 c-2 -8 -4 -33 -5 -55 l-1 -40 -50 0 c-46 0 -50
2 -53 26 -2 17 6 37 24 58 21 26 33 31 58 29 22 -2 30 -7 27 -18z m613 11 c3
-5 -1 -27 -9 -50 -20 -58 -2 -51 24 10 13 29 27 48 34 46 7 -3 10 -11 9 -18
-2 -8 -5 -32 -5 -54 l-2 -40 -52 -2 -51 -3 2 48 c1 26 6 53 10 60 8 14 32 16
40 3z m333 -48 c-2 -54 -4 -58 -27 -58 -19 0 -24 4 -22 20 2 11 5 31 6 45 2
32 13 50 32 50 11 0 13 -13 11 -57z m161 18 c3 -24 -3 -40 -19 -57 -26 -28
-74 -32 -83 -8 -16 41 32 107 74 102 20 -2 26 -9 28 -37z"/>
<path d="M2197 1040 c-18 -26 -23 -60 -8 -60 11 0 34 56 29 71 -3 8 -11 4 -21
-11z"/>
<path d="M3190 1041 c-5 -11 -10 -30 -10 -42 0 -17 3 -19 14 -10 8 7 19 25 25
42 8 23 7 29 -4 29 -8 0 -19 -9 -25 -19z"/>
<path d="M1775 1079 c-8 -25 -1 -34 20 -26 19 8 20 47 1 47 -8 0 -18 -9 -21
-21z"/>
<path d="M1760 1014 c-15 -38 -12 -46 13 -42 15 2 23 11 25 29 4 37 -25 47
-38 13z"/>
<path d="M2354 1025 c-17 -41 -17 -45 -3 -45 5 0 17 16 25 35 17 41 17 45 3
45 -5 0 -17 -16 -25 -35z"/>
<path d="M3470 1041 c-5 -11 -10 -32 -10 -48 l1 -28 19 24 c21 24 27 71 10 71
-5 0 -14 -9 -20 -19z"/>
<path d="M750 1156 c0 -4 25 -37 56 -73 48 -57 53 -67 41 -82 -7 -9 -36 -43
-63 -75 l-49 -59 50 6 c28 4 83 10 123 13 l72 7 0 122 0 123 -32 5 c-63 11
-198 20 -198 13z"/>
<path d="M4215 1153 c-16 -2 -49 -6 -73 -9 l-43 -5 3 -122 3 -122 108 -13 c60
-8 111 -11 114 -8 5 4 -21 40 -94 127 -12 15 -8 24 35 75 70 86 70 84 20 83
-24 -1 -56 -4 -73 -6z"/>
</g>
</svg>
