<?xml version="1.0" encoding="UTF-8"?>
<svg version="1.1" viewBox="0 0 1024 1024" width="1280" height="1280" xmlns="http://www.w3.org/2000/svg">
<path transform="translate(401,361)" d="m0 0 2 3 7 16 8 12 9 11 16 16 14 11 14 10 16 10 12 7 3 1-2 4-8 11-4 10v15l4 13 6 9 5 4 5 2h7l9-4 7-9 4-11 1-6v-11l-3-10-7-10-4-5v-2l18-10 21-14 17-13 13-12 11-12 10-14 8-17 2-5 12 7 24 15 9 7 5 8 2 12-4 16-8 18-11 19-13 19-12 16-13 15-12 13-12 12-8 7-18 14-19 11-12 5-12 3h-17l-15-4-16-8-11-7-16-12-13-12-22-22-9-11-12-15-15-22-9-15-11-23-4-14v-8l4-11 6-7 22-14z" fill="#EC407A"/>
<path transform="translate(498,278)" d="m0 0h28l17 3 13 5 9 6 1 34 23 14 12 8 1 3-4 12-6 11-10 13-16 16-14 11-16 11-13 8-12 6-19-11-12-8-16-12-14-12-12-13-10-15-5-12-1-8 26-16 8-5h2v-34l8-6 11-5 13-3z" fill="#EC407A"/>
<path transform="translate(653,599)" d="m0 0h13l8 5 4 7 2 3 6-10 8-5h12l6 3 5 6 3 8 1 6v51h10v8h-32v-8h10l-1-52-3-8-4-3h-9l-6 4-4 10-1 9-1 40h10v8h-31v-8h10l-1-48-2-9-2-4-4-2h-9l-5 3-4 9-1 5-1 46h10v8h-32v-8h10v-64h-10l-1-1v-7h23l1 10 7-9z" fill="#EC407A"/>
<path transform="translate(332,566)" d="m0 0h13l10 3 10 6 8 9 7 14 3 12 1 9v12l-2 14-5 13-6 9-6 7-9 6-10 3h-16l-10-3-11-8-7-9-6-12-3-12-1-18 2-16 5-14 7-10 7-7 10-6zm2 8-10 3-8 7-6 12-3 15v27l3 15 6 12 9 8 6 2h14l9-4 7-7 5-11 3-15v-27l-3-15-6-12-8-7-10-3z" fill="#EC407A"/>
<path transform="translate(494,599)" d="m0 0h13l7 4 4 5 3 8 1 10v47h10v8h-32v-8h10l-1-49-2-9-5-5h-11l-6 5-3 7-1 6-1 45h10v8h-32v-8h10v-64h-11v-8h23l1 10 6-8z" fill="#EC407A"/>
<path transform="translate(562,599)" d="m0 0h17l10 5 6 8 3 8 1 10v43h10v8h-22l-1-7-8 7-6 2h-12l-10-5-6-8-2-7v-12l4-10 8-7 9-3h24l-2-15-4-6-7-3h-9l-6 3-3 3-3 8h-6v-16l10-5zm4 40-6 3-4 6-1 3v11l3 7 6 5 2 1h9l7-4 4-6 1-4v-22z" fill="#EC407A"/>
<path transform="translate(433,599)" d="m0 0h15l5 2v19l-1 1h-6l-3-9-3-2h-9l-5 3-4 5-3 12-1 43h14v8h-36v-8h11v-64h-11v-8h22l1 11 4-6 7-6z" fill="#EC407A"/>
</svg>
